<svg xmlns="http://www.w3.org/2000/svg" xmlns:xlink="http://www.w3.org/1999/xlink" xmlns:inkscape="http://www.inkscape.org/namespaces/inkscape" version="1.1" width="792" height="612" viewBox="0 0 792 612">
<path transform="matrix(.75,0,0,.75,392.865,346.08003)" d="M0 0C-54.54-12.04-70.9-77.37-64-125.05L-115.33-149.45C-121.27-63.73-80.68-1.76 0 0Z" fill="#fff101" fill-rule="evenodd"/>
<path transform="matrix(.75,0,0,.75,369.165,259.155)" d="M0 0C-7.06 35.32-3.37 83.64 34.16 109.16 84.69 138.54 137.14 111.57 132.33 58.11 126.87 78.18 109.71 94.23 84.85 90.22 62.55 85.72 52.29 59.56 56.62 41.9 62.39 12.84 102.17-.96 121.42 25.53L121.26-72.72C111.8-75.45 102.65-76.73 93.67-76.73 45.39-76.73 7.22-39.49 0 0Z" fill="#36c2de" fill-rule="evenodd"/>
<path transform="matrix(.75,0,0,.75,0,0)" d="M368.71 513.62H368.87C368.55 508.32 368.55 502.7 368.55 497.24 367.75 496.12 366.95 495.32 365.98 494.51 365.02 493.87 364.06 493.23 362.78 492.59 363.9 492.11 364.86 491.3 365.82 490.18 366.79 489.06 367.75 488.25 368.55 487.45 368.71 486.49 368.71 485.52 368.71 484.56 368.87 483.6 368.87 482.63 368.87 481.67 366.46 482.63 364.38 483.76 362.45 485.2 360.69 486.49 359.25 488.09 357.96 490.02 356.68 491.78 355.88 493.71 355.24 495.8 354.76 497.88 354.43 499.97 354.43 502.22 354.43 504.95 354.92 507.52 355.88 509.76 357 512.01 358.28 513.94 359.89 515.7 361.65 517.47 363.58 518.91 365.66 520.2 367.91 521.48 369.99 522.61 372.4 523.41 374.64 524.21 376.89 524.85 378.98 525.34 381.22 525.66 383.15 525.98 385.07 525.98 385.55 525.98 386.03 525.82 386.51 525.82 387 525.66 387.64 525.5 388.44 525.01 389.24 524.53 390.2 523.89 391.49 522.93 392.77 521.96 394.53 520.68 396.94 518.91L397.74 520.04C396.3 521 395.02 522.12 393.89 523.09 392.61 524.05 391.49 525.01 390.36 525.98 389.24 527.1 388.12 528.06 387.16 529.19 386.03 530.31 384.91 531.44 383.79 532.72 383.63 532.56 383.31 532.4 382.99 532.24 382.66 532.08 382.02 531.92 381.22 531.76 376.41 530.79 372.08 529.51 368.07 527.9 364.06 526.46 360.53 524.53 357.64 522.45 354.76 520.2 352.51 517.63 350.91 514.74 349.14 511.85 348.34 508.48 348.34 504.79 348.34 501.9 348.98 499.01 350.1 496.44 351.07 493.87 352.67 491.46 354.59 489.38 356.36 487.13 358.6 485.2 361.17 483.6 363.74 481.83 366.3 480.39 369.19 479.26 369.35 477.02 369.51 474.77 369.83 472.68L371.76 474.13C371.28 476.05 370.96 478.14 370.8 480.07 370.63 481.99 370.47 483.92 370.31 485.84 371.92 484.4 373.36 483.12 374.81 482.31 376.25 481.35 377.53 480.55 378.82 479.91 380.1 479.1 381.22 478.46 382.34 477.66 383.31 477.02 384.11 476.05 384.91 474.93 385.07 475.57 385.87 476.05 387.32 476.53 388.6 477.02 390.2 477.5 391.81 477.98 393.41 478.46 394.86 478.78 396.14 479.26 397.42 479.74 398.06 480.07 398.06 480.55 398.06 480.87 398.06 481.03 397.9 481.35 397.9 481.67 397.58 482.15 397.1 482.79 396.78 483.6 395.98 484.4 395.18 485.68 394.21 486.81 392.93 488.41 391.33 490.34L390.36 489.7C391.65 488.25 392.29 487.13 392.29 485.84 392.29 485.36 391.97 485.04 391.33 484.56 390.52 484.08 389.56 483.76 388.44 483.44 387.48 483.12 386.19 482.79 384.91 482.47 383.63 482.31 382.5 482.15 381.38 482.15 380.26 482.15 379.14 482.47 377.85 482.79 376.57 483.28 375.45 483.76 374.48 484.56 373.52 485.2 372.72 485.84 372.08 486.65 371.28 487.45 370.96 488.09 370.96 488.73 370.96 489.7 371.28 490.34 371.92 491.14 372.56 491.94 373.36 492.59 374.32 493.23 373.2 493.87 372.4 494.35 371.92 494.83 371.28 495.32 370.63 495.96 369.99 496.6 369.99 498.69 369.99 500.45 369.99 501.9 369.99 503.5 369.99 505.11 370.15 506.55 370.15 507.84 370.31 509.28 370.47 510.57 370.63 512.01 370.63 513.46 370.8 515.06L368.71 513.62ZM424.37 518.75H424.53C422.6 520.52 420.52 522.61 418.43 524.85 416.19 527.1 414.26 529.35 412.5 531.76L411.7 531.27 412.02 530.79C410.9 530.15 409.61 529.35 408.33 528.22 406.89 527.1 405.6 525.82 404.32 524.21 403.04 522.77 401.91 521 400.95 519.23 400.15 517.31 399.67 515.22 399.67 513.13 399.67 511.37 399.99 509.6 400.63 507.84 401.27 506.23 402.07 504.79 403.04 503.34 404 501.9 405.12 500.45 406.24 499.33 407.53 498.05 408.49 497.08 409.61 496.12 410.73 495.16 411.7 494.35 412.5 493.71 413.3 493.07 413.78 492.59 414.1 492.27 415.39 492.91 416.67 494.03 417.79 495.32 418.91 496.6 420.04 498.21 421 500.13L422.12 499.49 422.6 500.45C421.32 501.42 420.04 502.22 418.91 502.86 417.95 503.66 416.83 504.47 415.71 505.27 414.42 506.07 413.14 507.03 411.54 508.16 410.09 509.28 408.17 510.73 405.76 512.49L406.56 508.32H407.05C407.21 508.8 407.37 508.96 407.85 508.96 408.01 508.96 408.33 508.8 409.13 508.32 409.77 507.84 410.57 507.2 411.38 506.55 412.18 505.91 412.98 505.43 413.62 504.79 414.26 504.15 414.58 503.82 414.58 503.66 414.58 503.18 414.42 502.54 414.26 501.9 413.94 501.26 413.78 500.61 413.3 500.13 412.98 499.49 412.66 499.01 412.18 498.69 411.86 498.21 411.54 498.05 411.06 498.05 410.41 498.05 409.77 498.37 408.97 498.85 408.17 499.49 407.37 500.13 406.72 501.1 406.08 502.06 405.44 503.18 404.96 504.31 404.64 505.59 404.32 506.71 404.32 508 404.32 510.57 404.8 512.97 405.76 515.06 406.72 517.15 407.85 518.91 409.13 520.36 410.41 521.8 411.7 522.93 412.98 523.73 414.1 524.53 415.07 524.85 415.55 524.85 415.87 524.85 416.03 524.69 416.35 524.53 416.67 524.37 416.99 524.05 417.47 523.57L423.25 517.95 424.37 518.75ZM450.03 518.75H450.19C448.11 520.52 446.18 522.61 444.1 524.85 441.85 527.1 439.93 529.35 438.16 531.76L437.2 531.27 437.52 530.79C436.56 530.15 435.28 529.35 433.83 528.22 432.55 527.1 431.11 525.82 429.82 524.21 428.54 522.77 427.58 521 426.61 519.23 425.81 517.31 425.33 515.22 425.33 513.13 425.33 511.37 425.65 509.6 426.29 507.84 426.93 506.23 427.74 504.79 428.7 503.34 429.66 501.9 430.78 500.45 431.91 499.33 433.03 498.05 434.15 497.08 435.28 496.12 436.4 495.16 437.36 494.35 438 493.71 438.8 493.07 439.45 492.59 439.61 492.27 441.05 492.91 442.17 494.03 443.46 495.32 444.58 496.6 445.7 498.21 446.66 500.13L447.79 499.49 448.27 500.45C446.82 501.42 445.7 502.22 444.58 502.86 443.62 503.66 442.49 504.47 441.21 505.27 440.09 506.07 438.8 507.03 437.2 508.16 435.6 509.28 433.67 510.73 431.43 512.49L432.23 508.32H432.71C432.71 508.8 433.03 508.96 433.35 508.96 433.51 508.96 433.99 508.8 434.79 508.32 435.44 507.84 436.24 507.2 437.04 506.55 437.84 505.91 438.64 505.43 439.29 504.79 439.93 504.15 440.25 503.82 440.25 503.66 440.25 503.18 440.09 502.54 439.77 501.9 439.61 501.26 439.29 500.61 438.96 500.13 438.64 499.49 438.32 499.01 437.84 498.69 437.52 498.21 437.04 498.05 436.72 498.05 436.08 498.05 435.28 498.37 434.47 498.85 433.67 499.49 433.03 500.13 432.39 501.1 431.75 502.06 431.11 503.18 430.62 504.31 430.14 505.59 429.98 506.71 429.98 508 429.98 510.57 430.46 512.97 431.43 515.06 432.39 517.15 433.51 518.91 434.79 520.36 436.08 521.8 437.36 522.93 438.64 523.73 439.77 524.53 440.73 524.85 441.21 524.85 441.37 524.85 441.69 524.69 442.01 524.53 442.17 524.37 442.65 524.05 443.14 523.57L448.91 517.95 450.03 518.75ZM496.87 488.89H497.03C496.55 490.82 496.39 492.75 496.07 494.67 495.91 496.6 495.75 498.53 495.75 500.29 496.07 501.26 496.55 502.06 497.35 502.86 498.15 503.66 499.11 504.47 500.08 505.11 499.11 505.59 498.31 506.23 497.51 506.87 496.71 507.52 496.07 508.32 495.27 509.28 495.27 510.41 495.27 511.69 495.1 512.81 495.1 513.94 495.1 515.22 495.1 516.35 495.1 517.63 495.1 518.75 495.1 519.88 495.27 521 495.27 522.29 495.27 523.41 497.19 524.05 498.95 524.69 500.56 525.34 502.16 525.82 503.61 526.3 504.89 526.62 506.33 526.94 507.46 527.26 508.58 527.42 509.7 527.58 510.82 527.58 511.95 527.58 513.07 527.58 514.35 527.26 515.8 526.62 517.08 525.98 518.52 525.01 519.65 523.73 520.93 522.29 521.89 520.68 522.69 518.59 523.5 516.67 523.82 514.26 523.82 511.53 523.82 508.64 523.33 505.75 522.37 503.02 521.41 500.29 520.13 497.72 518.36 495.48 516.6 493.07 514.67 490.98 512.27 488.89 510.02 486.97 507.46 485.36 504.89 483.92 502.32 482.63 499.6 481.51 496.71 480.71 493.98 479.91 491.09 479.58 488.53 479.58 486.28 479.58 484.2 479.91 482.11 480.55 480.19 481.03 478.42 481.99 476.82 483.12 475.38 484.4 474.09 485.84 473.29 487.61 472.33 489.38 471.85 491.46 471.85 493.87 471.85 496.12 472.33 498.37 473.29 500.29 474.09 502.38 475.38 504.15 476.82 505.59 478.26 507.03 479.87 508.16 481.79 508.96 483.72 509.92 485.64 510.25 487.57 510.25 489.17 510.25 490.45 510.08 491.26 509.6 491.9 509.12 492.22 508.64 492.22 508.16 492.22 507.52 492.06 506.87 491.58 506.39 491.26 505.75 490.45 505.43 489.33 505.11 490.29 504.31 491.26 503.5 492.22 502.7 493.18 501.9 493.82 501.1 494.14 500.13 494.3 498.05 494.3 495.96 494.46 494.03 494.62 491.94 494.78 489.86 494.94 487.77L496.87 488.89ZM494.46 536.25H494.62C494.3 533.84 494.14 531.44 494.14 529.03 491.74 528.22 489.81 527.58 488.53 527.1 487.08 526.62 485.8 526.3 484.84 525.98 484.04 525.82 483.24 525.66 482.75 525.66 482.11 525.5 481.63 525.5 481.15 525.5 480.99 525.5 480.67 525.66 480.51 525.66 480.19 525.66 479.87 525.98 479.55 526.14 479.23 526.46 478.74 526.78 478.26 527.42 477.62 527.9 477.14 528.71 476.34 529.67L475.05 529.03C476.66 526.94 477.94 525.34 478.9 524.21 479.87 522.93 480.67 522.12 481.15 521.48 481.79 520.84 482.27 520.52 482.43 520.2 482.75 520.04 483.07 520.04 483.24 520.04 483.56 520.04 484.04 520.04 484.36 520.04 484.84 520.2 485.48 520.2 486.28 520.52 486.92 520.68 488.05 521 489.17 521.32 490.45 521.8 491.9 522.29 493.82 522.93 493.82 521.8 493.82 520.84 493.82 519.72 493.82 518.75 493.82 517.63 493.82 516.67 493.82 515.54 493.82 514.58 493.82 513.46 493.82 512.49 493.82 511.37 493.82 510.25 492.54 511.05 491.42 511.53 490.45 511.69 489.49 512.01 488.53 512.17 487.89 512.17 485.8 512.17 483.72 511.69 481.63 510.89 479.55 509.92 477.78 508.64 476.02 507.03 474.41 505.43 473.13 503.5 472.01 501.26 471.04 499.01 470.56 496.44 470.56 493.55 470.56 490.5 471.21 487.93 472.65 485.52 474.09 483.28 475.86 481.35 478.1 479.74 480.35 478.14 482.75 476.86 485.48 476.05 488.21 475.41 490.93 474.93 493.5 474.93 498.15 474.93 502.48 475.73 506.65 477.5 510.82 479.26 514.35 481.51 517.56 484.4 520.61 487.29 523.01 490.66 524.78 494.35 526.7 498.21 527.51 502.06 527.51 506.23 527.51 510.08 526.86 513.46 525.58 516.67 524.46 519.88 522.69 522.61 520.77 524.85 518.84 527.26 516.6 529.03 514.19 530.31 511.63 531.6 509.22 532.24 506.97 532.24 506.17 532.24 505.37 532.24 504.41 532.08 503.45 531.92 502.48 531.76 501.36 531.44 500.4 531.27 499.28 530.95 498.31 530.63 497.35 530.31 496.39 529.99 495.43 529.67 495.59 530.95 495.75 532.24 495.91 533.52 496.07 534.81 496.23 536.09 496.39 537.37L494.46 536.25ZM556.86 518.75H557.02C554.93 520.52 553.01 522.61 550.92 524.85 548.68 527.1 546.75 529.35 544.99 531.76L544.03 531.27 544.35 530.79C543.38 530.15 542.1 529.35 540.66 528.22 539.37 527.1 537.93 525.82 536.65 524.21 535.36 522.77 534.4 521 533.44 519.23 532.64 517.31 532.16 515.22 532.16 513.13 532.16 511.37 532.48 509.6 533.12 507.84 533.76 506.23 534.56 504.79 535.53 503.34 536.49 501.9 537.61 500.45 538.73 499.33 539.86 498.05 540.98 497.08 542.1 496.12 543.22 495.16 544.03 494.35 544.83 493.71 545.63 493.07 546.27 492.59 546.43 492.27 547.88 492.91 549 494.03 550.28 495.32 551.4 496.6 552.53 498.21 553.49 500.13L554.61 499.49 555.09 500.45C553.65 501.42 552.53 502.22 551.4 502.86 550.44 503.66 549.32 504.47 548.04 505.27 546.91 506.07 545.47 507.03 544.03 508.16 542.42 509.28 540.5 510.73 538.25 512.49L539.05 508.32H539.54C539.54 508.8 539.86 508.96 540.18 508.96 540.34 508.96 540.82 508.8 541.62 508.32 542.26 507.84 543.06 507.2 543.87 506.55 544.67 505.91 545.47 505.43 546.11 504.79 546.75 504.15 547.07 503.82 547.07 503.66 547.07 503.18 546.91 502.54 546.59 501.9 546.43 501.26 546.11 500.61 545.79 500.13 545.47 499.49 545.15 499.01 544.67 498.69 544.35 498.21 543.87 498.05 543.55 498.05 542.9 498.05 542.1 498.37 541.3 498.85 540.5 499.49 539.86 500.13 539.21 501.1 538.57 502.06 537.93 503.18 537.45 504.31 536.97 505.59 536.81 506.71 536.81 508 536.81 510.57 537.29 512.97 538.25 515.06 539.21 517.15 540.34 518.91 541.62 520.36 542.9 521.8 544.19 522.93 545.47 523.73 546.59 524.53 547.56 524.85 548.04 524.85 548.2 524.85 548.52 524.69 548.84 524.53 549 524.37 549.48 524.05 549.96 523.57L555.74 517.95 556.86 518.75ZM582.36 518.75H582.52C580.6 520.52 578.67 522.61 576.43 524.85 574.34 527.1 572.42 529.35 570.49 531.76L569.69 531.27 570.01 530.79C568.89 530.15 567.77 529.35 566.32 528.22 564.88 527.1 563.6 525.82 562.31 524.21 561.03 522.77 559.91 521 559.1 519.23 558.3 517.31 557.82 515.22 557.82 513.13 557.82 511.37 558.14 509.6 558.78 507.84 559.42 506.23 560.23 504.79 561.19 503.34 562.15 501.9 563.27 500.45 564.4 499.33 565.52 498.05 566.64 497.08 567.77 496.12 568.73 495.16 569.69 494.35 570.49 493.71 571.29 493.07 571.78 492.59 572.1 492.27 573.38 492.91 574.66 494.03 575.95 495.32 577.07 496.6 578.19 498.21 579.15 500.13L580.12 499.49 580.76 500.45C579.31 501.42 578.19 502.22 577.07 502.86 575.95 503.66 574.82 504.47 573.7 505.27 572.58 506.07 571.13 507.03 569.69 508.16 568.09 509.28 566.16 510.73 563.92 512.49L564.72 508.32H565.2C565.2 508.8 565.52 508.96 565.84 508.96 566 508.96 566.48 508.8 567.12 508.32 567.93 507.84 568.73 507.2 569.53 506.55 570.33 505.91 570.97 505.43 571.62 504.79 572.26 504.15 572.58 503.82 572.58 503.66 572.58 503.18 572.58 502.54 572.26 501.9 572.1 501.26 571.78 500.61 571.45 500.13 571.13 499.49 570.81 499.01 570.33 498.69 569.85 498.21 569.53 498.05 569.21 498.05 568.57 498.05 567.77 498.37 566.96 498.85 566.16 499.49 565.52 500.13 564.72 501.1 564.08 502.06 563.6 503.18 563.11 504.31 562.63 505.59 562.47 506.71 562.47 508 562.47 510.57 562.95 512.97 563.92 515.06 564.88 517.15 566 518.91 567.28 520.36 568.57 521.8 569.85 522.93 570.97 523.73 572.26 524.53 573.06 524.85 573.7 524.85 573.86 524.85 574.18 524.69 574.34 524.53 574.66 524.37 574.98 524.05 575.63 523.57L581.4 517.95 582.36 518.75ZM615.72 494.19H615.89C615.72 489.7 615.08 486.33 613.96 484.08 612.84 481.99 611.55 481.03 609.95 481.03 608.83 481.03 607.87 481.35 606.74 482.15 605.62 482.79 604.66 483.92 603.69 485.04 602.73 486.33 602.09 487.77 601.45 489.38 600.97 490.98 600.65 492.59 600.65 494.19 600.65 496.6 600.97 498.69 601.77 500.61 602.57 502.38 603.69 503.82 604.98 505.11 606.26 506.23 607.87 507.2 609.79 507.84 611.71 508.48 613.64 508.8 615.89 508.8 615.89 506.39 615.89 503.98 615.72 501.58 615.72 499.17 615.72 496.76 615.72 494.19ZM614.28 530.47H614.44C613.64 531.6 613.32 532.56 613 533.36 612.84 534.16 612.68 534.97 612.68 535.93 612.68 537.05 613 538.34 613.64 539.62 614.12 540.75 615.08 541.87 616.21 542.83 617.33 543.96 618.77 544.76 620.54 545.4 622.14 545.88 624.23 546.2 626.47 546.2 629.04 546.2 631.12 545.88 633.21 545.08 635.13 544.44 636.9 543.31 638.34 542.03 639.78 540.75 640.75 539.14 641.55 537.21 642.35 535.29 642.67 533.2 642.67 530.95 642.67 529.83 642.83 528.71 642.83 527.42 642.83 526.3 642.99 524.85 642.99 523.09 643.15 521.48 643.15 519.56 643.31 517.31 643.31 515.22 643.31 512.65 643.31 509.6L643.15 509.44C642.03 512.01 640.43 514.42 638.5 516.99 636.74 519.56 634.81 521.96 632.73 524.05 630.8 526.14 628.88 527.9 626.95 529.35 625.03 530.63 623.58 531.27 622.3 531.27 620.22 531.27 618.77 529.67 617.81 526.46 616.85 523.09 616.21 517.79 616.05 510.57 613.48 510.57 611.23 510.25 609.15 509.44 607.06 508.8 605.3 507.68 603.86 506.23 602.41 504.95 601.29 503.18 600.49 501.1 599.69 499.17 599.2 496.92 599.2 494.35 599.2 491.46 599.85 488.89 601.13 486.49 602.41 484.24 603.86 482.31 605.62 480.71 607.38 479.26 609.15 477.98 611.07 477.18 613 476.21 614.6 475.89 615.89 475.89 616.53 475.89 617.33 476.37 617.97 477.34 618.77 478.46 619.25 479.74 619.9 481.51 620.38 483.28 620.86 485.2 621.18 487.45 621.5 489.7 621.66 491.94 621.66 494.35 621.66 496.6 621.66 498.85 621.66 501.1 621.5 503.34 621.5 505.59 621.5 507.84 622.78 507.52 623.91 507.2 624.87 506.71 625.83 506.07 626.47 505.59 627.11 505.11 627.59 504.63 628.08 504.15 628.24 503.66 628.56 503.18 628.72 502.7 628.72 502.54 628.72 501.26 627.92 500.29 626.47 499.33 627.75 498.85 628.88 498.21 629.84 497.4 630.8 496.6 631.6 495.64 632.41 494.51 633.05 495.96 633.69 497.08 634.33 498.05 634.97 499.17 635.77 500.13 636.9 501.1 636.26 501.26 635.29 501.74 634.33 502.54 633.21 503.34 632.09 504.15 631.12 504.95 629.52 506.23 627.92 507.2 626.15 508 624.55 508.96 622.94 509.44 621.5 509.6 621.66 514.9 622.14 519.07 622.94 522.12 623.74 525.17 624.87 526.78 626.31 526.78 626.95 526.78 627.92 526.3 629.04 525.5 630 524.69 631.28 523.57 632.41 522.29 633.69 520.84 634.97 519.23 636.26 517.31 637.54 515.38 638.66 513.3 639.78 511.05 640.75 508.8 641.55 506.39 642.35 503.82 642.99 501.26 643.31 498.69 643.31 496.12 643.31 493.07 643.15 490.18 643.15 487.45 642.99 484.72 642.83 482.15 642.67 479.42 643.31 479.42 644.12 479.26 644.92 478.94 645.72 478.46 646.52 478.14 647.32 477.66 648.13 477.18 648.77 476.53 649.41 476.05 650.05 475.57 650.53 475.25 650.69 474.93L651.17 475.41C650.53 476.69 650.21 478.3 649.89 480.23 649.57 481.99 649.25 484.08 649.09 486.17 648.93 488.25 648.93 490.34 648.93 492.59 648.77 494.83 648.77 496.92 648.77 499.01 648.77 503.66 648.93 508.32 649.09 513.3 649.09 518.43 649.25 523.25 649.25 528.06 649.25 531.44 648.45 534.32 647.16 536.89 645.72 539.46 643.79 541.55 641.39 543.15 639.14 544.76 636.42 546.04 633.21 546.85 630.16 547.65 626.95 548.13 623.58 548.13 621.18 548.13 619.09 547.81 617.01 547.49 615.08 547.01 613.32 546.36 611.88 545.56 610.43 544.92 609.31 544.12 608.51 543.15 607.54 542.35 607.22 541.39 607.22 540.59 607.22 540.26 607.22 539.94 607.38 539.46 607.54 539.14 607.87 538.5 608.19 537.7 608.67 536.89 609.15 535.93 609.95 534.65 610.75 533.52 611.88 531.92 613.32 529.99L614.28 530.47ZM681.17 518.75 680.21 517.95 674.43 523.57C673.79 524.05 673.47 524.37 673.15 524.53 672.99 524.69 672.67 524.85 672.51 524.85 671.86 524.85 671.06 524.53 669.78 523.73 668.66 522.93 667.37 521.8 666.09 520.36 664.81 518.91 663.68 517.15 662.72 515.06 661.76 512.97 661.28 510.57 661.28 508 661.28 506.71 661.44 505.59 661.92 504.31 662.4 503.18 662.88 502.06 663.52 501.1 664.33 500.13 664.97 499.49 665.77 498.85 666.57 498.37 667.37 498.05 668.02 498.05 668.34 498.05 668.66 498.21 669.14 498.69 669.62 499.01 669.94 499.49 670.26 500.13 670.58 500.61 670.9 501.26 671.06 501.9 671.38 502.54 671.38 503.18 671.38 503.66 671.38 503.82 671.06 504.15 670.42 504.79 669.78 505.43 669.14 505.91 668.34 506.55 667.53 507.2 666.73 507.84 665.93 508.32 665.29 508.8 664.81 508.96 664.65 508.96 664.33 508.96 664.01 508.8 664.01 508.32H663.52L662.72 512.49C664.97 510.73 666.89 509.28 668.5 508.16 669.94 507.03 671.38 506.07 672.51 505.27 673.79 504.47 674.75 503.66 675.87 502.86 677 502.22 678.12 501.42 679.56 500.45L678.92 499.49 677.96 500.13C677 498.21 675.87 496.6 674.75 495.32 673.47 494.03 672.19 492.91 670.9 492.27 670.58 492.59 670.1 493.07 669.3 493.71 668.5 494.35 667.53 495.16 666.57 496.12 665.45 497.08 664.33 498.05 663.2 499.33 662.08 500.45 660.96 501.9 660 503.34 659.03 504.79 658.23 506.23 657.59 507.84 656.95 509.6 656.63 511.37 656.63 513.13 656.63 515.22 657.11 517.31 657.91 519.23 658.71 521 659.83 522.77 661.12 524.21 662.4 525.82 663.68 527.1 665.13 528.22 666.57 529.35 667.69 530.15 668.82 530.79L668.5 531.27 669.3 531.76C671.22 529.35 673.15 527.1 675.23 524.85 677.48 522.61 679.4 520.52 681.17 518.75ZM680.53 525.66C681.49 524.53 682.61 523.41 683.41 522.29 684.38 521.16 685.34 519.88 686.3 518.75 688.71 519.72 690.63 520.52 692.08 521.16 693.52 521.96 694.8 522.61 695.6 523.25 696.41 523.73 697.05 524.21 697.53 524.69 698.01 525.01 698.33 525.17 698.81 525.17 699.45 525.17 699.93 525.01 700.58 524.53 701.22 524.05 701.86 523.57 702.34 522.93 702.82 522.29 703.14 521.64 703.46 520.84 703.78 520.2 703.94 519.56 703.94 519.07 703.94 517.31 703.14 516.18 701.54 515.22 700.09 514.42 697.53 513.62 694.32 512.81 692.24 512.33 690.47 511.85 689.03 511.37 687.74 511.05 686.62 510.57 685.82 510.25 685.02 509.76 684.54 509.28 684.22 508.8 684.06 508.32 683.89 507.52 683.89 506.87 683.89 505.43 684.38 503.82 685.5 502.22 686.62 500.45 687.9 498.85 689.35 497.4 690.63 495.96 692.08 494.67 693.36 493.71 694.64 492.75 695.6 492.27 696.09 492.27 696.41 492.27 697.05 492.43 697.85 492.75 698.49 493.23 699.29 493.55 700.09 494.03 701.06 494.51 701.7 495 702.5 495.32 703.3 495.8 703.78 495.96 704.27 495.96 705.07 495.96 706.19 495 707.47 493.23L708.6 494.03C706.67 496.76 705.23 498.69 704.27 499.81 703.3 500.93 702.5 501.58 702.18 501.58 701.54 501.58 700.9 501.26 700.26 500.93 699.45 500.45 698.65 499.97 697.85 499.33 697.05 498.85 696.25 498.37 695.44 497.88 694.64 497.56 693.68 497.24 692.88 497.24 692.4 497.24 691.91 497.4 691.27 497.88 690.79 498.21 690.47 498.69 690.15 499.17 689.67 499.65 689.51 500.29 689.19 500.93 689.03 501.58 688.87 502.22 688.87 502.7 688.87 503.34 689.03 503.82 689.19 504.15 689.19 504.63 689.51 504.95 690.15 505.27 690.63 505.59 691.27 506.07 692.4 506.39 693.36 506.71 694.64 507.03 696.41 507.52 698.81 508.16 700.74 508.64 702.34 509.28 703.78 509.76 705.07 510.25 706.03 510.73 706.99 511.21 707.63 511.69 707.95 512.33 708.44 512.81 708.6 513.46 708.6 514.26 708.6 515.06 708.28 516.02 707.79 517.15 707.47 518.27 706.83 519.4 706.03 520.52 705.23 521.64 704.43 522.93 703.62 524.05 702.66 525.34 701.7 526.3 700.9 527.42 700.09 528.39 699.29 529.19 698.49 529.99 697.85 530.79 697.37 531.44 696.89 531.76 696.09 530.95 694.96 530.15 694 529.35 692.88 528.39 691.91 527.74 690.79 526.94 689.67 526.3 688.55 525.82 687.58 525.34 686.46 525.01 685.5 524.69 684.54 524.69 684.06 524.69 683.41 525.01 682.77 525.5 682.13 525.98 681.65 526.3 681.33 526.78L680.53 525.66Z" fill="#000002" fill-rule="evenodd"/>
<path transform="matrix(.75,0,0,.75,393.82499,346.08003)" d="M0 0C-52.13-20.54-57.74-87.64-43.47-133.56L-90.15-165.98C-109.71-82.19-79.4-14.6 0 0Z" fill="#89b836" fill-rule="evenodd"/>
</svg>
